<svg id="Layer_1" data-name="Layer 1" xmlns="http://www.w3.org/2000/svg" viewBox="0 0 1024 1024">
	<defs>
		<style>.cls-1{fill:#00beb7;}.cls-2{fill:#fff;}</style>
	</defs>
	<path class="cls-1"
		  d="M958.93,674.79V349.15a174.85,174.85,0,0,0-85.48-149.88L600.37,37.75A174.17,174.17,0,0,0,423,37.81L150.46,199.24A174.86,174.86,0,0,0,65.07,349.05V674.88a174.87,174.87,0,0,0,85.36,149.8L423,986.17a174.13,174.13,0,0,0,177.42.06L873.47,824.65a174.87,174.87,0,0,0,85.46-149.86"/>
	<path class="cls-2"
		  d="M602.52,784.78H432.88v-60.9H487v-187h60.9v187h54.6ZM452.24,683.05l-60.9-.2.05-13.39c.18-31.06.25-42.65-16.06-60a254.46,254.46,0,0,1-23.9-29.1c-38.15-48.12-54.44-90.95-54.44-143,0-115.29,86.57-210.08,201.37-220.47a203,203,0,0,1,40.21.05c112.54,9.65,201.17,106.5,201.17,220.42,0,56.21-19.58,103.07-65.45,156.56-4.21,5.46-8.5,10.63-13.09,15.76-11.84,13.15-14.91,22.84-16.09,35.76v37.59h-60.9V644.16c0-.83,0-1.64.11-2.47C586,621.24,591,596.62,615.88,569c3.8-4.25,7.27-8.46,10.6-12.8.35-.47.71-.92,1.1-1.36,36.88-42.86,51.26-75.8,51.26-117.48,0-82.57-64.18-152.77-146.09-159.81a144.35,144.35,0,0,0-28.73,0c-83.38,7.55-146.13,76.26-146.13,159.84,0,38.45,11.72,68.14,41.83,105.91.46.57.9,1.16,1.31,1.77a191.78,191.78,0,0,0,18.64,22.7c33,35,32.82,67.54,32.62,102Z"/>
</svg>
